<?xml version="1.0" encoding="UTF-8" standalone="no"?>
<!-- Created with Inkscape (http://www.inkscape.org/) -->

<svg
   width="110.80398mm"
   height="51.108028mm"
   viewBox="0 0 110.80398 51.108028"
   version="1.1"
   id="svg5"
   inkscape:version="1.1.2 (b8e25be833, 2022-02-05)"
   sodipodi:docname="jami-logo.svg"
   xmlns:inkscape="http://www.inkscape.org/namespaces/inkscape"
   xmlns:sodipodi="http://sodipodi.sourceforge.net/DTD/sodipodi-0.dtd"
   xmlns="http://www.w3.org/2000/svg"
   xmlns:svg="http://www.w3.org/2000/svg">
  <sodipodi:namedview
     id="namedview7"
     pagecolor="#ffffff"
     bordercolor="#666666"
     borderopacity="1.0"
     inkscape:pageshadow="2"
     inkscape:pageopacity="0.0"
     inkscape:pagecheckerboard="0"
     inkscape:document-units="mm"
     showgrid="false"
     fit-margin-left="10"
     fit-margin-right="10"
     fit-margin-bottom="5"
     fit-margin-top="5"
     inkscape:zoom="0.77771465"
     inkscape:cx="100.29386"
     inkscape:cy="434.60671"
     inkscape:window-width="2560"
     inkscape:window-height="1377"
     inkscape:window-x="-8"
     inkscape:window-y="-8"
     inkscape:window-maximized="1"
     inkscape:current-layer="layer1" />
  <defs
     id="defs2" />
  <g
     inkscape:label="Layer 1"
     inkscape:groupmode="layer"
     id="layer1"
     transform="translate(-78.639248,-33.476892)">
    <path
       style="fill:#88898b;fill-rule:evenodd;stroke:none;stroke-width:0.352778"
       d="m 157.70901,60.830901 -2.00625,-0.481542 V 38.840851 h 2.00625 z"
       id="path1016" />
    <path
       style="fill:none;fill-rule:evenodd;stroke:#88898b;stroke-width:0.559996"
       d="m 157.70901,60.830901 -2.00625,-0.481542 V 38.840851 h 2.00625 z"
       id="path1018" />
    <path
       style="fill:#88898b;fill-rule:evenodd;stroke:none;stroke-width:0.352778"
       d="M 132.58523,58.700476 126.68608,38.75689 h -1.80586 l -6.34154,21.349405 1.72685,-0.362302 4.96288,-19.965459 4.98898,19.042592 z"
       id="path1020" />
    <path
       style="fill:none;fill-rule:evenodd;stroke:#88898b;stroke-width:0.559996"
       d="M 132.58523,58.700476 126.68608,38.75689 h -1.80586 l -6.34154,21.349405 1.72685,-0.362302 4.96288,-19.965459 4.98898,19.042592 z"
       id="path1022" />
    <path
       style="fill:#88898b;fill-rule:evenodd;stroke:none;stroke-width:0.352778"
       d="m 148.33359,38.840851 -0.28328,0.0081 0.002,-0.0081 h -1.16382 l -4.71487,15.451667 -4.51415,-15.451314 -1.51906,-3.53e-4 -3.12984,19.863505 1.49824,0.04445 2.03659,-17.311864 5.04649,17.174987 0.037,-0.182739 0.003,0.02187 5.63668,-17.18557 2.26872,18.040703 2.0066,0.481542 z"
       id="path1024" />
    <path
       style="fill:none;fill-rule:evenodd;stroke:#88898b;stroke-width:0.559996"
       d="m 148.33359,38.840851 -0.28328,0.0081 0.002,-0.0081 h -1.16382 l -4.71487,15.451667 -4.51415,-15.451314 -1.51906,-3.53e-4 -3.12984,19.863505 1.49824,0.04445 2.03659,-17.311864 5.04649,17.174987 0.037,-0.182739 0.003,0.02187 5.63668,-17.18557 2.26872,18.040703 2.0066,0.481542 z"
       id="path1026" />
    <path
       style="fill:#88898b;fill-rule:evenodd;stroke:none;stroke-width:0.352778"
       d="m 115.25326,57.489037 c 0,3.528836 -2.90724,7.259108 -3.75532,8.175272 -0.84843,0.915811 -1.0802,0.80257 -0.44167,-0.361244 0.57679,-1.051631 2.19039,-5.20065 2.19039,-7.677856 0,-2.477205 0,-18.784358 0,-18.784358 h 2.0066 c 0,0 0,15.119703 0,18.648186 z"
       id="path1028" />
    <path
       style="fill:none;fill-rule:evenodd;stroke:#88898b;stroke-width:0.559996"
       d="m 115.25326,57.489037 c 0,3.528836 -2.90724,7.259108 -3.75532,8.175272 -0.84843,0.915811 -1.0802,0.80257 -0.44167,-0.361244 0.57679,-1.051631 2.19039,-5.20065 2.19039,-7.677856 0,-2.477205 0,-18.784358 0,-18.784358 h 2.0066 c 0,0 0,15.119703 0,18.648186 z"
       id="path1030" />
    <path
       style="fill:#007abc;fill-rule:evenodd;stroke:none;stroke-width:0.352778"
       d="m 135.75847,78.446859 c 0,0.629003 -0.50976,1.138061 -1.13735,1.138061 -0.62865,0 -1.13771,-0.509058 -1.13771,-1.138061 0,-0.627944 0.50906,-1.137002 1.13771,-1.137002 0.62759,0 1.13735,0.509058 1.13735,1.137002 z"
       id="path1106" />
    <path
       style="fill:#007abc;fill-rule:evenodd;stroke:none;stroke-width:0.352778"
       d="m 91.096275,55.60732 c 0,0.678392 -0.550193,1.228373 -1.228514,1.228373 -0.678674,0 -1.228513,-0.549981 -1.228513,-1.228373 0,-0.678391 0.549839,-1.228372 1.228513,-1.228372 0.678321,0 1.228514,0.549981 1.228514,1.228372 z"
       id="path1108" />
    <path
       style="fill:none;fill-rule:evenodd;stroke:#0076ba;stroke-width:0.727992"
       d="m 89.867761,55.60732 c 26.169019,-10.492669 89.211469,-8.132939 89.211469,2.402064 0,5.750984 -22.00205,10.346972 -42.03665,11.36897 -16.75447,0.854428 -32.13065,-0.762353 -32.13065,-4.373386 0,-4.12997 23.09319,-6.321073 31.18415,-6.321073 11.43564,0 28.16295,1.994606 28.16295,6.167614 0,4.888795 -17.88689,7.376936 -24.28592,7.8232 -6.82237,0.475898 -21.26898,0.596195 -21.63022,-2.734733 -0.09,-2.556933 15.30809,-3.382433 20.19723,-3.249436 4.40161,0.119944 18.62596,1.770239 10.1981,7.332486 -3.53977,2.191103 -9.52394,4.214283 -13.82218,4.298244"
       id="path1110" />
  </g>
</svg>
