<?xml version="1.0" encoding="UTF-8" standalone="no"?>
<!-- Created with Inkscape (http://www.inkscape.org/) -->

<svg
   width="110.80398mm"
   height="59.602917mm"
   viewBox="0 0 110.80398 59.602917"
   version="1.1"
   id="svg5"
   inkscape:version="1.1.2 (b8e25be833, 2022-02-05)"
   sodipodi:docname="jami-logo.svg"
   xmlns:inkscape="http://www.inkscape.org/namespaces/inkscape"
   xmlns:sodipodi="http://sodipodi.sourceforge.net/DTD/sodipodi-0.dtd"
   xmlns="http://www.w3.org/2000/svg"
   xmlns:svg="http://www.w3.org/2000/svg">
  <sodipodi:namedview
     id="namedview7"
     pagecolor="#ffffff"
     bordercolor="#666666"
     borderopacity="1.0"
     inkscape:pageshadow="2"
     inkscape:pageopacity="0.0"
     inkscape:pagecheckerboard="0"
     inkscape:document-units="mm"
     showgrid="false"
     fit-margin-left="10"
     fit-margin-right="10"
     fit-margin-top="5"
     fit-margin-bottom="5"
     inkscape:zoom="0.77771465"
     inkscape:cx="196.73025"
     inkscape:cy="510.47001"
     inkscape:window-width="2560"
     inkscape:window-height="1377"
     inkscape:window-x="-8"
     inkscape:window-y="-8"
     inkscape:window-maximized="1"
     inkscape:current-layer="g1380" />
  <defs
     id="defs2" />
  <g
     inkscape:label="Layer 1"
     inkscape:groupmode="layer"
     id="layer1"
     transform="translate(-26.000869,-13.270428)">
    <g
       id="g1380"
       transform="matrix(0.35277778,0,0,0.35277778,-204.5626,-44.684646)"
       style="fill-rule:evenodd"
       inkscape:transform-center-x="245.62887"
       inkscape:transform-center-y="-59.73629">
      <g
         id="g2236"
         transform="translate(613.33549,63.648023)">
        <path
           style="fill:#88898b;stroke:none"
           d="m 264.365,178.173 -5.687,-1.365 v -60.969 h 5.687 z"
           id="path1016" />
        <path
           style="fill:none;stroke:#88898b;stroke-width:1.58739"
           d="m 264.365,178.173 -5.687,-1.365 v -60.969 h 5.687 z"
           id="path1018" />
        <path
           style="fill:#88898b;stroke:none"
           d="m 193.148,172.134 -16.722,-56.533 h -5.119 l -17.976,60.518 4.895,-1.027 14.068,-56.595 14.142,53.979 z"
           id="path1020" />
        <path
           style="fill:none;stroke:#88898b;stroke-width:1.58739"
           d="m 193.148,172.134 -16.722,-56.533 h -5.119 l -17.976,60.518 4.895,-1.027 14.068,-56.595 14.142,53.979 z"
           id="path1022" />
        <path
           style="fill:#88898b;stroke:none"
           d="m 237.789,115.839 -0.803,0.023 0.007,-0.023 h -3.299 l -13.365,43.8 -12.796,-43.799 -4.306,-0.001 -8.872,56.306 4.247,0.126 5.773,-49.073 14.305,48.685 0.105,-0.518 0.008,0.062 15.978,-48.715 6.431,51.139 5.688,1.365 z"
           id="path1024" />
        <path
           style="fill:none;stroke:#88898b;stroke-width:1.58739"
           d="m 237.789,115.839 -0.803,0.023 0.007,-0.023 h -3.299 l -13.365,43.8 -12.796,-43.799 -4.306,-0.001 -8.872,56.306 4.247,0.126 5.773,-49.073 14.305,48.685 0.105,-0.518 0.008,0.062 15.978,-48.715 6.431,51.139 5.688,1.365 z"
           id="path1026" />
        <path
           style="fill:#88898b;stroke:none"
           d="m 144.018,168.7 c 0,10.003 -8.241,20.577 -10.645,23.174 -2.405,2.596 -3.062,2.275 -1.252,-1.024 1.635,-2.981 6.209,-14.742 6.209,-21.764 0,-7.022 0,-53.247 0,-53.247 h 5.688 c 0,0 0,42.859 0,52.861 z"
           id="path1028" />
        <path
           style="fill:none;stroke:#88898b;stroke-width:1.58739"
           d="m 144.018,168.7 c 0,10.003 -8.241,20.577 -10.645,23.174 -2.405,2.596 -3.062,2.275 -1.252,-1.024 1.635,-2.981 6.209,-14.742 6.209,-21.764 0,-7.022 0,-53.247 0,-53.247 h 5.688 c 0,0 0,42.859 0,52.861 z"
           id="path1030" />
        <path
           style="fill:#2c2c2b;stroke:none"
           d="m 70.7212,243.531 h 1.1074 v 7.93 c 0,1.679 -0.8457,2.667 -2.1074,3.18 l -0.5474,-0.811 c 1.1783,-0.488 1.5474,-1.189 1.5474,-2.619 z"
           id="path1032" />
        <path
           style="fill:#2c2c2b;stroke:none"
           d="m 74.6499,250.723 c 0,1.024 0.8574,1.215 1.3809,1.215 1,0 1.6909,-0.68 1.8813,-1.441 v -1.215 c -2.5239,0.143 -3.2622,0.369 -3.2622,1.441 z m 4.7856,1.869 -0.9042,0.179 c -0.274,-0.322 -0.441,-0.822 -0.4883,-1.238 -0.3926,0.832 -1.2857,1.297 -2.2027,1.297 -1.0835,0 -2.2026,-0.548 -2.2026,-2.071 0,-1.608 0.8335,-2.119 4.2744,-2.298 v -0.584 c 0,-0.809 -0.1548,-1.356 -1.3813,-1.356 -0.7378,0 -1.4405,0.213 -2.107,0.583 l -0.25,-0.905 c 0.607,-0.322 1.5713,-0.584 2.4761,-0.584 1.7739,0 2.2744,0.786 2.2744,2.25 v 2.75 c 0,0.858 0.1782,1.596 0.5112,1.977"
           id="path1034" />
        <path
           style="fill:#2c2c2b;stroke:none"
           d="m 82.2813,250.045 c 0,0.333 0.0117,0.702 0.0595,0.951 0.2974,0.43 0.9527,0.93 1.8574,0.93 1.3931,0 1.9405,-1.119 1.9405,-2.834 0,-1.442 -0.5,-2.535 -1.774,-2.535 -1.1782,0 -1.8095,0.82 -2.0239,1.297 -0.0356,0.214 -0.0595,0.571 -0.0595,0.869 z m 2.31,-4.418 c 1.6309,0 2.6543,1.155 2.6543,3.43 0,2.011 -0.7143,3.773 -2.8686,3.773 -0.8218,0 -1.6075,-0.369 -2.0601,-0.869 v 3.453 h -1.0596 v -8.203 c 0,-0.44 -0.0478,-0.941 -0.1665,-1.346 l 0.9761,-0.142 c 0.1191,0.226 0.2144,0.738 0.2383,1.107 0.3213,-0.476 1.0356,-1.203 2.2739,-1.203 h 0.0122"
           id="path1036" />
        <path
           style="fill:#2c2c2b;stroke:none"
           d="m 89.5913,250.723 c 0,1.024 0.8569,1.215 1.3809,1.215 1,0 1.6909,-0.68 1.8813,-1.441 v -1.215 c -2.5239,0.143 -3.2622,0.369 -3.2622,1.441 z m 4.7857,1.869 -0.9048,0.179 c -0.2735,-0.322 -0.4405,-0.822 -0.4878,-1.238 -0.3931,0.832 -1.2862,1.297 -2.2027,1.297 -1.0835,0 -2.2026,-0.548 -2.2026,-2.071 0,-1.608 0.8335,-2.119 4.2744,-2.298 v -0.584 c 0,-0.809 -0.1548,-1.356 -1.3813,-1.356 -0.7378,0 -1.4405,0.213 -2.1075,0.583 l -0.2495,-0.905 c 0.607,-0.322 1.5713,-0.584 2.4761,-0.584 1.7739,0 2.2739,0.786 2.2739,2.25 v 2.75 c 0,0.858 0.1787,1.596 0.5118,1.977"
           id="path1038" />
        <path
           style="fill:#2c2c2b;stroke:none"
           d="m 97.0083,245.723 c 0.1191,0.285 0.2144,0.726 0.2261,0.988 0.5361,-0.571 1.4765,-1.023 2.3574,-1.023 1.6312,0 2.1902,1 2.1902,2.427 v 4.561 h -1.071 v -4.311 c 0,-0.939 -0.274,-1.785 -1.4288,-1.785 -0.7378,0 -1.5478,0.393 -2,0.916 v 5.18 h -1.0835 v -5.465 c 0,-0.44 -0.0478,-0.941 -0.1665,-1.346 z"
           id="path1040" />
        <path
           style="fill:#2c2c2b;stroke:none"
           d="m 114.771,249.116 -1.583,-4.345 -1.607,4.345 z m -2.06,-5.585 h 1.012 l 3.536,9.145 h -1.214 l -1.012,-2.692 h -3.739 l -0.987,2.692 h -1.12 l 3.524,-9.145"
           id="path1042" />
        <path
           style="fill:#2c2c2b;stroke:none"
           d="m 122.069,246.865 c -0.429,-0.215 -1.048,-0.381 -1.608,-0.381 -0.476,0 -1.214,0.204 -1.214,0.989 0,0.584 0.381,0.822 1.334,1.238 1.047,0.465 1.881,0.94 1.881,2.096 0,1.583 -1.155,2.047 -2.214,2.047 -0.715,0 -1.727,-0.178 -2.322,-0.416 l 0.25,-0.929 c 0.571,0.262 1.393,0.429 1.964,0.429 0.655,0 1.25,-0.227 1.25,-1.084 0,-0.643 -0.536,-0.964 -1.559,-1.405 -0.988,-0.428 -1.643,-0.821 -1.643,-1.928 0,-1.513 1.297,-1.882 2.262,-1.882 0.643,0 1.44,0.156 1.881,0.345 z"
           id="path1044" />
        <path
           style="fill:#2c2c2b;stroke:none"
           d="m 127.807,246.865 c -0.429,-0.215 -1.047,-0.381 -1.607,-0.381 -0.476,0 -1.214,0.204 -1.214,0.989 0,0.584 0.381,0.822 1.333,1.238 1.048,0.465 1.881,0.94 1.881,2.096 0,1.583 -1.155,2.047 -2.214,2.047 -0.715,0 -1.727,-0.178 -2.322,-0.416 l 0.25,-0.929 c 0.572,0.262 1.393,0.429 1.965,0.429 0.654,0 1.25,-0.227 1.25,-1.084 0,-0.643 -0.536,-0.964 -1.56,-1.405 -0.988,-0.428 -1.643,-0.821 -1.643,-1.928 0,-1.513 1.298,-1.882 2.262,-1.882 0.643,0 1.441,0.156 1.881,0.345 z"
           id="path1046" />
        <path
           style="fill:#2c2c2b;stroke:none"
           d="m 132.867,251.984 c 1.393,0 2.107,-0.975 2.107,-2.785 0,-1.786 -0.714,-2.726 -2.119,-2.726 -1.405,0 -2.119,0.94 -2.119,2.726 0,1.81 0.714,2.785 2.119,2.785 z m 3.214,-2.761 c 0,1.81 -0.75,3.691 -3.226,3.691 -2.464,0 -3.226,-1.881 -3.226,-3.703 0,-1.785 0.762,-3.631 3.226,-3.631 2.476,0 3.226,1.846 3.226,3.631 v 0.012"
           id="path1048" />
        <path
           style="fill:#2c2c2b;stroke:none"
           d="m 137.605,249.318 c 0,-2.012 0.81,-3.726 3.31,-3.726 0.631,0 1.203,0.119 1.608,0.25 l -0.203,0.929 c -0.44,-0.167 -0.941,-0.25 -1.381,-0.25 -1.655,0 -2.238,1.237 -2.238,2.797 0,1.477 0.607,2.62 2.274,2.62 0.476,0 1.059,-0.084 1.44,-0.25 l 0.155,0.939 c -0.357,0.132 -0.988,0.251 -1.655,0.251 -2.536,0 -3.31,-1.714 -3.31,-3.548 z"
           id="path1050" />
        <path
           style="fill:#2c2c2b;stroke:none"
           d="m 145.273,252.676 h -1.084 v -6.869 h 1.084 z m 0.047,-8.132 h -1.19 v -1.083 h 1.19 v 1.083"
           id="path1052" />
        <path
           style="fill:#2c2c2b;stroke:none"
           d="m 148.01,250.723 c 0,1.024 0.858,1.215 1.382,1.215 1,0 1.69,-0.68 1.881,-1.441 v -1.215 c -2.524,0.143 -3.263,0.369 -3.263,1.441 z m 4.787,1.869 -0.905,0.179 c -0.274,-0.322 -0.441,-0.822 -0.488,-1.238 -0.393,0.832 -1.286,1.297 -2.203,1.297 -1.083,0 -2.202,-0.548 -2.202,-2.071 0,-1.608 0.833,-2.119 4.274,-2.298 v -0.584 c 0,-0.809 -0.155,-1.356 -1.381,-1.356 -0.739,0 -1.441,0.213 -2.107,0.583 l -0.251,-0.905 c 0.608,-0.322 1.572,-0.584 2.477,-0.584 1.774,0 2.274,0.786 2.274,2.25 v 2.75 c 0,0.858 0.178,1.596 0.512,1.977"
           id="path1054" />
        <path
           style="fill:#2c2c2b;stroke:none"
           d="m 157.154,251.878 v 0.81 l -0.571,0.035 c -1.108,0.072 -1.786,-0.333 -1.786,-1.595 v -4.394 h -1.155 v -0.869 h 1.155 v -1.619 l 1.059,-0.262 v 1.881 h 1.524 v 0.869 h -1.524 v 4.037 c 0,0.844 0.215,1.107 0.905,1.107 z"
           id="path1056" />
        <path
           style="fill:#2c2c2b;stroke:none"
           d="m 159.987,245.807 h -1.083 v 6.869 h 1.083 z m 0.048,-2.346 h -1.191 v 1.083 h 1.191 v -1.083"
           id="path1058" />
        <path
           style="fill:#2c2c2b;stroke:none"
           d="m 165.154,251.984 c 1.393,0 2.108,-0.975 2.108,-2.785 0,-1.786 -0.715,-2.726 -2.119,-2.726 -1.405,0 -2.12,0.94 -2.12,2.726 0,1.81 0.715,2.785 2.12,2.785 z m 3.215,-2.761 c 0,1.81 -0.75,3.691 -3.226,3.691 -2.465,0 -3.227,-1.881 -3.227,-3.703 0,-1.785 0.762,-3.631 3.227,-3.631 2.476,0 3.226,1.846 3.226,3.631 v 0.012"
           id="path1060" />
        <path
           style="fill:#2c2c2b;stroke:none"
           d="m 171.155,245.723 c 0.118,0.285 0.214,0.726 0.226,0.988 0.536,-0.571 1.476,-1.023 2.357,-1.023 1.631,0 2.191,1 2.191,2.427 v 4.561 h -1.072 v -4.311 c 0,-0.939 -0.274,-1.785 -1.428,-1.785 -0.739,0 -1.548,0.393 -2.001,0.916 v 5.18 h -1.083 v -5.465 c 0,-0.44 -0.048,-0.941 -0.167,-1.346 z"
           id="path1062" />
        <path
           style="fill:#2c2c2b;stroke:none"
           d="m 183.429,246.734 v -0.869 h 1.238 v -0.32 c 0,-1.238 0.405,-2.561 2.202,-2.561 0.369,0 0.87,0.059 1.227,0.155 l -0.167,0.893 c -0.286,-0.083 -0.691,-0.132 -0.928,-0.132 -0.905,0 -1.286,0.407 -1.286,1.68 v 0.285 h 1.679 v 0.869 h -1.679 v 5.942 h -1.048 v -5.942 z"
           id="path1064" />
        <path
           style="fill:#2c2c2b;stroke:none"
           d="m 191.441,251.984 c 1.393,0 2.107,-0.975 2.107,-2.785 0,-1.786 -0.714,-2.726 -2.119,-2.726 -1.405,0 -2.119,0.94 -2.119,2.726 0,1.81 0.714,2.785 2.119,2.785 z m 3.214,-2.761 c 0,1.81 -0.749,3.691 -3.226,3.691 -2.464,0 -3.226,-1.881 -3.226,-3.703 0,-1.785 0.762,-3.631 3.226,-3.631 2.477,0 3.226,1.846 3.226,3.631 v 0.012"
           id="path1066" />
        <path
           style="fill:#2c2c2b;stroke:none"
           d="m 199.953,245.711 -0.058,0.964 c -0.846,0 -1.81,0.345 -2.18,1.179 v 4.822 h -1.083 v -5.048 c 0,-0.679 -0.047,-1.358 -0.167,-1.763 l 0.976,-0.142 c 0.12,0.285 0.215,0.822 0.238,1.142 0.393,-0.702 1.322,-1.154 2.274,-1.154 z"
           id="path1068" />
        <path
           style="fill:#2c2c2b;stroke:none"
           d="m 212.347,252.354 h -0.976 l -2.715,-7.454 -0.345,7.776 h -1.059 l 0.487,-9.145 h 1.452 l 2.715,7.407 2.75,-7.407 h 1.513 l 0.464,9.145 h -1.119 l -0.345,-7.787 z"
           id="path1070" />
        <path
           style="fill:#2c2c2b;stroke:none"
           d="m 221.537,246.426 c -1.131,0 -1.832,0.951 -1.951,2.106 h 3.725 c -0.024,-1.369 -0.536,-2.106 -1.762,-2.106 z m 0.394,5.512 c 0.761,0 1.524,-0.167 2.071,-0.405 l 0.203,0.868 c -0.476,0.226 -1.369,0.465 -2.357,0.465 -2.215,0 -3.369,-1.309 -3.369,-3.524 0,-2.154 1.119,-3.774 3.177,-3.774 1.787,0 2.645,1.166 2.645,3.131 v 0.619 h -4.751 c -0.06,1.87 0.952,2.62 2.368,2.62 h 0.013"
           id="path1072" />
        <path
           style="fill:#2c2c2b;stroke:none"
           d="m 230.788,248.413 c 0,-0.321 -0.012,-0.679 -0.071,-0.94 -0.298,-0.416 -0.941,-0.916 -1.846,-0.916 -1.404,0 -1.94,1.107 -1.94,2.833 0,1.428 0.501,2.523 1.774,2.523 1.178,0 1.81,-0.821 2.012,-1.298 0.047,-0.213 0.071,-0.558 0.071,-0.856 z m -2.309,4.417 c -1.643,0 -2.655,-1.154 -2.655,-3.416 0,-2.013 0.701,-3.775 2.869,-3.775 0.809,0 1.608,0.357 2.047,0.845 v -3.309 l 1.06,-0.167 v 7.524 c 0,0.739 0.036,1.489 0.274,2.025 l -0.941,0.189 c -0.178,-0.32 -0.274,-0.773 -0.297,-1.131 -0.31,0.465 -1.024,1.215 -2.346,1.215 h -0.011"
           id="path1074" />
        <path
           style="fill:#2c2c2b;stroke:none"
           d="m 235.253,252.676 h -1.083 v -6.869 h 1.083 z m 0.048,-8.132 h -1.192 v -1.083 h 1.192 v 1.083"
           id="path1076" />
        <path
           style="fill:#2c2c2b;stroke:none"
           d="m 237.17,249.318 c 0,-2.012 0.809,-3.726 3.309,-3.726 0.631,0 1.203,0.119 1.607,0.25 l -0.201,0.929 c -0.442,-0.167 -0.942,-0.25 -1.382,-0.25 -1.655,0 -2.238,1.237 -2.238,2.797 0,1.477 0.606,2.62 2.274,2.62 0.476,0 1.06,-0.084 1.441,-0.25 l 0.154,0.939 c -0.357,0.132 -0.988,0.251 -1.655,0.251 -2.536,0 -3.309,-1.714 -3.309,-3.548 z"
           id="path1078" />
        <path
           style="fill:#2c2c2b;stroke:none"
           d="m 244.158,250.723 c 0,1.024 0.858,1.215 1.381,1.215 1,0 1.691,-0.68 1.881,-1.441 v -1.215 c -2.524,0.143 -3.262,0.369 -3.262,1.441 z m 4.785,1.869 -0.904,0.179 c -0.273,-0.322 -0.44,-0.822 -0.488,-1.238 -0.393,0.832 -1.285,1.297 -2.202,1.297 -1.083,0 -2.203,-0.548 -2.203,-2.071 0,-1.608 0.834,-2.119 4.274,-2.298 v -0.584 c 0,-0.809 -0.155,-1.356 -1.381,-1.356 -0.738,0 -1.441,0.213 -2.107,0.583 l -0.25,-0.905 c 0.607,-0.322 1.571,-0.584 2.476,-0.584 1.774,0 2.274,0.786 2.274,2.25 v 2.75 c 0,0.858 0.178,1.596 0.511,1.977"
           id="path1080" />
        <path
           style="fill:#2c2c2b;stroke:none"
           d="m 251.825,252.676 h -1.083 v -9.501 l 1.083,-0.167 z"
           id="path1082" />
        <path
           style="fill:#2c2c2b;stroke:none"
           d="m 261.504,252.676 h -1.107 v -9.145 h 1.107 z"
           id="path1084" />
        <path
           style="fill:#2c2c2b;stroke:none"
           d="m 264.789,245.723 c 0.119,0.285 0.215,0.726 0.227,0.988 0.536,-0.571 1.476,-1.023 2.357,-1.023 1.631,0 2.191,1 2.191,2.427 v 4.561 h -1.072 v -4.311 c 0,-0.939 -0.273,-1.785 -1.427,-1.785 -0.739,0 -1.549,0.393 -2.001,0.916 v 5.18 h -1.084 v -5.465 c 0,-0.44 -0.048,-0.941 -0.166,-1.346 z"
           id="path1086" />
        <path
           style="fill:#2c2c2b;stroke:none"
           d="m 270.944,246.734 v -0.869 h 1.239 v -0.32 c 0,-1.238 0.405,-2.561 2.202,-2.561 0.369,0 0.869,0.059 1.226,0.155 l -0.166,0.893 c -0.287,-0.083 -0.691,-0.132 -0.929,-0.132 -0.905,0 -1.286,0.407 -1.286,1.68 v 0.285 h 1.679 v 0.869 h -1.679 v 5.942 h -1.047 v -5.942 z"
           id="path1088" />
        <path
           style="fill:#2c2c2b;stroke:none"
           d="m 278.957,251.984 c 1.393,0 2.108,-0.975 2.108,-2.785 0,-1.786 -0.715,-2.726 -2.12,-2.726 -1.404,0 -2.119,0.94 -2.119,2.726 0,1.81 0.715,2.785 2.119,2.785 z m 3.215,-2.761 c 0,1.81 -0.75,3.691 -3.227,3.691 -2.465,0 -3.226,-1.881 -3.226,-3.703 0,-1.785 0.761,-3.631 3.226,-3.631 2.477,0 3.227,1.846 3.227,3.631 v 0.012"
           id="path1090" />
        <path
           style="fill:#2c2c2b;stroke:none"
           d="m 287.469,245.711 -0.059,0.964 c -0.845,0 -1.81,0.345 -2.18,1.179 v 4.822 h -1.083 v -5.048 c 0,-0.679 -0.047,-1.358 -0.166,-1.763 l 0.976,-0.142 c 0.119,0.285 0.215,0.822 0.238,1.142 0.393,-0.702 1.322,-1.154 2.274,-1.154 z"
           id="path1092" />
        <path
           style="fill:#2c2c2b;stroke:none"
           d="m 292.113,245.688 c 1.012,0 1.582,0.427 1.844,1.035 0.62,-0.619 1.62,-1.035 2.502,-1.035 1.631,0 2.201,1 2.201,2.427 v 4.561 h -1.071 v -4.298 c 0,-0.929 -0.274,-1.798 -1.452,-1.798 -0.643,0 -1.489,0.357 -1.977,0.881 0.072,0.297 0.096,0.678 0.096,1.119 v 4.096 h -1.037 v -4.311 c 0,-0.939 -0.285,-1.785 -1.451,-1.785 -0.631,0 -1.453,0.369 -1.894,0.916 v 5.18 h -1.083 v -5.465 c 0,-0.44 -0.048,-0.941 -0.166,-1.346 l 0.987,-0.142 c 0.107,0.285 0.203,0.738 0.214,1 0.525,-0.583 1.442,-1.035 2.287,-1.035 z"
           id="path1094" />
        <path
           style="fill:#2c2c2b;stroke:none"
           d="m 301.375,250.723 c 0,1.024 0.857,1.215 1.381,1.215 1,0 1.691,-0.68 1.881,-1.441 v -1.215 c -2.524,0.143 -3.262,0.369 -3.262,1.441 z m 4.785,1.869 -0.904,0.179 c -0.274,-0.322 -0.441,-0.822 -0.488,-1.238 -0.393,0.832 -1.286,1.297 -2.203,1.297 -1.083,0 -2.202,-0.548 -2.202,-2.071 0,-1.608 0.833,-2.119 4.274,-2.298 v -0.584 c 0,-0.809 -0.155,-1.356 -1.381,-1.356 -0.738,0 -1.441,0.213 -2.108,0.583 l -0.25,-0.905 c 0.608,-0.322 1.572,-0.584 2.477,-0.584 1.773,0 2.274,0.786 2.274,2.25 v 2.75 c 0,0.858 0.179,1.596 0.511,1.977"
           id="path1096" />
        <path
           style="fill:#2c2c2b;stroke:none"
           d="m 310.519,251.878 v 0.81 l -0.572,0.035 c -1.107,0.072 -1.787,-0.333 -1.787,-1.595 v -4.394 h -1.154 v -0.869 h 1.154 v -1.619 l 1.061,-0.262 v 1.881 h 1.523 v 0.869 h -1.523 v 4.037 c 0,0.844 0.214,1.107 0.904,1.107 z"
           id="path1098" />
        <path
           style="fill:#2c2c2b;stroke:none"
           d="m 313.352,252.676 h -1.083 v -6.869 h 1.083 z m 0.046,-8.132 h -1.189 v -1.083 h 1.189 v 1.083"
           id="path1100" />
        <path
           style="fill:#2c2c2b;stroke:none"
           d="m 315.268,249.318 c 0,-2.012 0.81,-3.726 3.31,-3.726 0.631,0 1.202,0.119 1.607,0.25 l -0.203,0.929 c -0.439,-0.167 -0.94,-0.25 -1.38,-0.25 -1.655,0 -2.239,1.237 -2.239,2.797 0,1.477 0.608,2.62 2.275,2.62 0.475,0 1.059,-0.084 1.44,-0.25 l 0.154,0.939 c -0.357,0.132 -0.988,0.251 -1.654,0.251 -2.536,0 -3.31,-1.714 -3.31,-3.548 z"
           id="path1102" />
        <path
           style="fill:#2c2c2b;stroke:none"
           d="m 325.364,246.865 c -0.429,-0.215 -1.048,-0.381 -1.607,-0.381 -0.477,0 -1.215,0.204 -1.215,0.989 0,0.584 0.382,0.822 1.334,1.238 1.048,0.465 1.882,0.94 1.882,2.096 0,1.583 -1.156,2.047 -2.215,2.047 -0.715,0 -1.727,-0.178 -2.322,-0.416 l 0.25,-0.929 c 0.572,0.262 1.393,0.429 1.964,0.429 0.655,0 1.25,-0.227 1.25,-1.084 0,-0.643 -0.535,-0.964 -1.559,-1.405 -0.988,-0.428 -1.644,-0.821 -1.644,-1.928 0,-1.513 1.299,-1.882 2.262,-1.882 0.644,0 1.441,0.156 1.882,0.345 z"
           id="path1104" />
        <path
           style="fill:#007abc;stroke:none"
           d="m 202.143,228.108 c 0,1.783 -1.445,3.226 -3.224,3.226 -1.782,0 -3.225,-1.443 -3.225,-3.226 0,-1.78 1.443,-3.223 3.225,-3.223 1.779,0 3.224,1.443 3.224,3.223 z"
           id="path1106" />
        <path
           style="fill:#007abc;stroke:none"
           d="m 75.5415,163.366 c 0,1.923 -1.5596,3.482 -3.4824,3.482 -1.9238,0 -3.4824,-1.559 -3.4824,-3.482 0,-1.923 1.5586,-3.482 3.4824,-3.482 1.9228,0 3.4824,1.559 3.4824,3.482 z"
           id="path1108" />
        <path
           style="fill:none;stroke:#0076ba;stroke-width:2.0636"
           d="m 72.0591,163.366 c 74.1799,-29.743 252.8829,-23.054 252.8829,6.809 0,16.302 -62.368,29.33 -119.159,32.227 -47.493,2.422 -91.079,-2.161 -91.079,-12.397 0,-11.707 65.461,-17.918 88.396,-17.918 32.416,0 79.832,5.654 79.832,17.483 0,13.858 -50.703,20.911 -68.842,22.176 -19.339,1.349 -60.29,1.69 -61.314,-7.752 -0.255,-7.248 43.393,-9.588 57.252,-9.211 12.477,0.34 52.798,5.018 28.908,20.785 -10.034,6.211 -26.997,11.946 -39.181,12.184"
           id="path1110" />
      </g>
    </g>
  </g>
</svg>
